<?xml version="1.0" standalone="no"?><!DOCTYPE svg PUBLIC "-//W3C//DTD SVG 1.1//EN" "http://www.w3.org/Graphics/SVG/1.1/DTD/svg11.dtd"><svg t="1569050682185" class="icon" viewBox="0 0 1024 1024" version="1.1" xmlns="http://www.w3.org/2000/svg" p-id="10549" width="80" height="80" xmlns:xlink="http://www.w3.org/1999/xlink"><defs><style type="text/css"></style></defs><path d="M611.5 794.31a39.28 39.28 0 0 1-27.86-11.52l-89.25-89.25a62.41 62.41 0 1 1-75.65-75.65l-129-129a39.4 39.4 0 0 1 0-55.7l107.48-107.58A62.42 62.42 0 1 1 475 247.88l108.64-108.69a39.44 39.44 0 0 1 55.71 0l107.5 107.5a11.34 11.34 0 0 1-16 16l-107.5-107.5a16.72 16.72 0 0 0-23.63 0l-126.21 126.2a11.34 11.34 0 0 1-19.23-9.69l0.05-0.35a39.63 39.63 0 1 0-39.15 34.22 38.17 38.17 0 0 0 5.52-0.59l0.35-0.05a11.34 11.34 0 0 1 9.69 19.23l-125 125a16.69 16.69 0 0 0 0 23.63L453.87 621a11.34 11.34 0 0 1-10.69 19 39 39 0 0 0-9.35-1.26 39.74 39.74 0 1 0 39.73 39.73 39 39 0 0 0-1.26-9.35 11.34 11.34 0 0 1 19-10.69l108.38 108.33a16.72 16.72 0 0 0 23.63 0L749.58 640.5a11.34 11.34 0 0 1 19.13 10.25 39.79 39.79 0 1 0 31-31.06 11.34 11.34 0 0 1-10.24-19.14l127.79-127.74a16.69 16.69 0 0 0 0-23.63l-75.4-75.4a11.34 11.34 0 0 1 16-16l75.4 75.4a39.4 39.4 0 0 1 0 55.7L823.8 598.34a62.41 62.41 0 1 1-76.44 76.45l-108 108a39.27 39.27 0 0 1-27.86 11.52z" fill="#FDDB43" p-id="10550"></path><path d="M728.3 244.84m-32.99 0a32.99 32.99 0 1 0 65.98 0 32.99 32.99 0 1 0-65.98 0Z" fill="#FDDB43" p-id="10551"></path><path d="M862.16 383.46m-32.99 0a32.99 32.99 0 1 0 65.98 0 32.99 32.99 0 1 0-65.98 0Z" fill="#FDDB43" p-id="10552"></path><path d="M483.12 666.06a51.54 51.54 0 1 1-37.33-37.35L298.22 481.05a28 28 0 0 1 0-39.54l35.12-35.14-85.69-28.23a23.12 23.12 0 0 0-29.2 14.74l-46 139.82a43.35 43.35 0 1 0-15.59 47.4l-45.59 138.54A23.13 23.13 0 0 0 126 747.85l164.07 54a42.65 42.65 0 1 0 41.5 13.67l120 39.53a23.12 23.12 0 0 0 29.2-14.74L524.5 707.4z" fill="#FDDB43" p-id="10553"></path><path d="M299.66 896.33a53.51 53.51 0 0 1-37.49-91.68l-139.72-46a34.51 34.51 0 0 1-22-43.53L138.69 599a53.47 53.47 0 1 1 30.37-92.3l38.62-117.36a34.46 34.46 0 0 1 43.51-22l85.7 28.23a11.34 11.34 0 0 1 4.47 18.78l-35.12 35.14a16.65 16.65 0 0 0 0 23.51l147.57 147.69a11.34 11.34 0 0 1-10.69 19 39 39 0 0 0-9.31-1.25 39.57 39.57 0 1 0 39.54 39.57 38.67 38.67 0 0 0-1.25-9.32 11.34 11.34 0 0 1 19-10.68l41.37 41.39a11.34 11.34 0 0 1 2.79 11.6l-43.73 132.9a34.46 34.46 0 0 1-43.51 22l-95.63-31.5a53.54 53.54 0 0 1-52.73 62zM156.85 568.76a11.34 11.34 0 0 1 10.77 14.88L122 722.18a11.82 11.82 0 0 0 7.51 14.91l164.07 54a11.34 11.34 0 0 1-1 21.82 30.3 30.3 0 0 0-6.9 2.38 31.33 31.33 0 1 0 37.19 7.59 11.34 11.34 0 0 1 12.18-18.12l120 39.53a11.78 11.78 0 0 0 14.95-7.48l41.55-126.27-17.36-17.38a62.22 62.22 0 1 1-75.47-75.5L290.2 489.06a39.36 39.36 0 0 1 0-55.57l22.1-22.11-68.2-22.47a11.78 11.78 0 0 0-14.88 7.51l-46 139.83a11.33 11.33 0 0 1-10.77 7.75 11.33 11.33 0 0 1-10.76-7.78l-0.09-0.28a33.19 33.19 0 0 0-1.51-4 30.79 30.79 0 1 0-13.61 41.37 31 31 0 0 0 3.6-2.34l0.23-0.16a11.32 11.32 0 0 1 6.54-2.05z" fill="#FDDB43" p-id="10554"></path></svg>