<?xml version="1.0" standalone="no"?><!DOCTYPE svg PUBLIC "-//W3C//DTD SVG 1.1//EN" "http://www.w3.org/Graphics/SVG/1.1/DTD/svg11.dtd"><svg t="1569050800929" class="icon" viewBox="0 0 1024 1024" version="1.1" xmlns="http://www.w3.org/2000/svg" p-id="13732" width="80" height="80" xmlns:xlink="http://www.w3.org/1999/xlink"><defs><style type="text/css"></style></defs><path d="M950.775926 803.431937H73.223994c-40.383997 0-73.223994-32.799997-73.223994-73.143994v-656.799949C0 33.143997 32.839997 0.344 73.223994 0.344h877.551932c40.383997 0 73.223994 32.799997 73.223994 73.143994v656.799949c0 40.343997-32.839997 73.143994-73.223994 73.143994zM73.335994 730.287943h877.439932l0.112-0.12V73.599994l-0.112-0.112H73.335994l-0.112 0.112 0.112 656.687949c-0.112 0-0.112 0 0 0z" fill="#FDDB43" p-id="13733"></path><path d="M363.951972 603.431953h-0.12c-31.463998-0.12-47.823996-31.775998-55.831996-47.087996-9.263999-17.831999-18.759999-41.031997-28.031998-63.431996-7.319999-17.823999-14.983999-36.223997-22.079998-51.079996-2.632-5.488-4.8-9.831999-6.752-13.263998-5.488 4.344-12.927999 11.319999-22.655998 22.175998-13.495999 15.087999-23.447998 28.911998-23.567998 29.023998a36.543997 36.543997 0 0 1-51.023996 8.463999 36.455997 36.455997 0 0 1-8.471999-50.975996c0.576-0.8 14.647999-20.455998 33.071997-40.223997 30.543998-32.919997 56.175996-48.231996 80.431994-48.463996h0.344c14.983999 0 28.599998 7.087999 40.383997 21.031998 5.84 6.967999 11.783999 16.111999 17.959998 27.999998 10.071999 19.199999 20.255998 43.767997 29.975998 67.431995 4.24 10.279999 10.183999 24.679998 16.135999 38.055997 9.495999-19.655998 20.135998-43.655997 28.031997-61.143996 50.111996-112.455991 76.079994-166.511987 119.215991-166.511987 39.359997 0 72.079994 39.079997 121.167991 103.423992 8.463999 11.087999 19.791998 25.943998 28.479997 36.111998 12.703999-11.199999 37.759997-37.479997 82.615994-97.711993 37.295997-50.055996 69.215995-98.167992 69.559995-98.623992a36.559997 36.559997 0 0 1 50.687996-10.287999 36.463997 36.463997 0 0 1 10.295999 50.623996c-1.488 2.288-37.415997 56.463996-79.175994 111.663991-24.823998 32.911997-46.679996 59.423995-64.639995 78.511994-30.663998 32.567997-51.831996 45.823996-73.119994 45.823996-20.479998 0-35.807997-14.279999-49.415996-29.599997-10.183999-11.535999-21.519998-26.399998-33.639998-42.279997-13.615999-17.831999-27.687998-36.343997-41.071997-51.319996-7.095999-7.999999-12.591999-13.367999-16.591998-16.911999-4.352 6.4-10.415999 16.687999-18.647999 32.911998-12.583999 24.687998-25.975998 54.743996-38.903997 83.775993-13.159999 29.487998-25.519998 57.255996-36.607997 78.623994-6.639999 12.799999-12.239999 22.063998-17.511999 29.263998-4.344 6.056-17.727999 23.999998-40.495996 23.999998z m147.591988 291.079977c-43.479997 0-84.783993-8.679999-116.359991-24.455998-37.871997-18.855999-58.695995-46.287996-58.695995-77.255994a28.599998 28.599998 0 0 1 28.607997-28.567998c15.783999 0 28.599998 12.799999 28.599998 28.567998 0 15.655999 44.735997 44.455997 117.839991 44.455997 73.119994 0 117.855991-28.799998 117.855991-44.455997a28.599998 28.599998 0 0 1 28.599998-28.567998c15.791999 0 28.599998 12.799999 28.599997 28.567998 0 30.855998-20.823998 58.287995-58.687995 77.255994-31.583998 15.775999-72.879994 24.455998-116.359991 24.455998zM109.839991 1023.99992a36.559997 36.559997 0 0 1-36.615997-36.567997 36.559997 36.559997 0 0 1 36.615997-36.575997l804.783938-0.8a36.559997 36.559997 0 0 1 36.607997 36.575997 36.559997 36.559997 0 0 1-36.607997 36.567997L109.839991 1023.99992z" fill="#FDDB43" p-id="13734"></path></svg>