<?xml version="1.0" standalone="no"?><!DOCTYPE svg PUBLIC "-//W3C//DTD SVG 1.1//EN" "http://www.w3.org/Graphics/SVG/1.1/DTD/svg11.dtd"><svg t="1569050753519" class="icon" viewBox="0 0 1024 1024" version="1.1" xmlns="http://www.w3.org/2000/svg" p-id="12210" width="80" height="80" xmlns:xlink="http://www.w3.org/1999/xlink"><defs><style type="text/css"></style></defs><path d="M350.085913 412.164206a37.75974 37.75974 0 0 1 9.663934 26.879816 32.959773 32.959773 0 0 1-9.727933 22.847842L219.014814 592.194969l131.0071 130.175105a33.919767 33.919767 0 0 1 10.239929 23.423839 33.215772 33.215772 0 0 1-10.239929 26.303819 46.719679 46.719679 0 0 1-30.59179 10.11193 34.431763 34.431763 0 0 1-23.29584-10.11193l-158.078913-156.990921A31.103786 31.103786 0 0 1 128.00744 590.658979a32.639776 32.639776 0 0 1 10.11193-21.503852l158.078914-157.05492a35.711754 35.711754 0 0 1 24.959828-9.599934 41.151717 41.151717 0 0 1 28.863802 9.599934z m181.182755 15.359895a39.807726 39.807726 0 0 1 20.735857-21.695851 35.711754 35.711754 0 0 1 29.311799-1.40799c9.791933 3.839974 17.087883 10.751926 21.75985 20.607858 4.671968 9.983931 5.119965 19.711864 1.40799 29.183799l-115.583205 298.749946a39.807726 39.807726 0 0 1-20.735858 21.567852 35.967753 35.967753 0 0 1-29.439797 1.40799 39.935725 39.935725 0 0 1-21.631851-20.607858 34.751761 34.751761 0 0 1-1.407991-29.1198l115.583206-298.749946z m409.597184 512.380477V256.06928H83.399747v683.835298H940.801852z m-44.991691-343.101641a32.383777 32.383777 0 0 1-10.111931 25.983821l-154.04694 153.150947a35.839754 35.839754 0 0 1-28.415805 9.983932 37.567742 37.567742 0 0 1-25.599824-9.983932 43.007704 43.007704 0 0 1-8.575941-26.367818c0-9.855932 2.815981-17.663879 8.575941-23.35984l131.007099-130.303104-131.007099-126.079133c-17.535879-16.447887-20.095862-33.151772-7.679947-50.047656 5.951959-8.063945 15.167896-12.159916 27.64781-12.031917a41.599714 41.599714 0 0 1 30.079793 12.031917l158.078913 156.926921c6.207957 4.095972 9.599934 10.815926 10.047931 20.095862z m63.99956-596.795897c17.727878 0 32.831774 6.335956 45.311688 18.94387a62.079573 62.079573 0 0 1 18.815871 45.567686v892.537864a62.271572 62.271572 0 0 1-18.687871 45.567687 61.695576 61.695576 0 0 1-45.439688 18.94387H64.135879a61.439578 61.439578 0 0 1-45.311688-18.815871 62.463571 62.463571 0 0 1-18.815871-45.695686V64.518596C0.00832 46.662719 6.216277 31.494823 18.696192 18.95091A61.695576 61.695576 0 0 1 64.135879 0.00704h895.737842z" p-id="12211" fill="#FDDB43"></path></svg>