<?xml version="1.0" standalone="no"?><!DOCTYPE svg PUBLIC "-//W3C//DTD SVG 1.1//EN" "http://www.w3.org/Graphics/SVG/1.1/DTD/svg11.dtd"><svg t="1569147475633" class="icon" viewBox="0 0 1024 1024" version="1.1" xmlns="http://www.w3.org/2000/svg" p-id="5126" width="81" height="81" xmlns:xlink="http://www.w3.org/1999/xlink"><defs><style type="text/css"></style></defs><path d="M670.573714 297.398857v176.201143c74.825143 6.509714 133.668571 68.571429 133.668572 143.872 0 79.652571-65.828571 144.457143-146.724572 144.457143-80.896 0-146.688-64.804571-146.688-144.457143 0-75.849143 59.684571-138.24 135.314286-143.981714V297.801143l-67.035429 65.974857a12.324571 12.324571 0 0 1-19.968-3.913143 11.885714 11.885714 0 0 1 2.669715-13.129143L649.874286 260.022857a12.361143 12.361143 0 0 1 17.261714 0l0.109714 0.109714a11.885714 11.885714 0 0 1 3.291429 10.532572v26.733714l67.401143 66.377143a12.288 12.288 0 0 0 19.968-3.913143 11.885714 11.885714 0 0 0-2.669715-13.129143l-87.990857-86.601143z m-317.878857 257.28C278.089143 547.986286 219.428571 486.034286 219.428571 410.843429c0-79.652571 65.828571-144.457143 146.724572-144.457143 80.896 0 146.724571 64.804571 146.724571 144.457143 0 75.995429-59.977143 138.496-135.753143 144.054857a12.068571 12.068571 0 0 1 0 0.365714v78.262857h91.721143c6.729143 0 12.214857 5.376 12.214857 12.068572 0 6.582857-5.485714 11.995429-12.214857 11.995428h-91.721143v98.304c0 6.656-5.485714 12.032-12.214857 12.032a12.141714 12.141714 0 0 1-12.214857-12.068571v-98.267429H254.866286a12.141714 12.141714 0 0 1-12.214857-12.032c0-6.656 5.485714-12.032 12.214857-12.032h97.828571v-78.262857a12.068571 12.068571 0 0 1 0-0.585143z m159.085714 468.845714C229.741714 1023.561143 0 793.892571 0 511.817143 0 229.741714 229.741714 0 511.780571 0s511.780571 229.741714 511.780572 511.780571-229.741714 511.780571-511.780572 511.780572z m0-990.537142C247.917714 32.987429 32.987429 247.917714 32.987429 511.780571c0 263.862857 214.930286 478.793143 478.793142 478.793143 263.862857 0 478.793143-214.930286 478.793143-478.793143 0-263.862857-214.930286-478.793143-478.793143-478.793142z m-145.627428 257.462857c-67.437714 0-122.258286 54.016-122.258286 120.393143 0 66.377143 54.857143 120.356571 122.258286 120.356571s122.258286-53.979429 122.258286-120.356571-54.857143-120.356571-122.258286-120.356572z m291.364571 206.628571c-67.401143 0-122.258286 54.016-122.258285 120.393143 0 66.377143 54.857143 120.393143 122.258285 120.393143 67.437714 0 122.294857-54.016 122.294857-120.393143 0-66.377143-54.857143-120.356571-122.294857-120.356571z" p-id="5127" fill="#C6C6C6"></path></svg>