<?xml version="1.0" standalone="no"?><!DOCTYPE svg PUBLIC "-//W3C//DTD SVG 1.1//EN" "http://www.w3.org/Graphics/SVG/1.1/DTD/svg11.dtd"><svg t="1569147401397" class="icon" viewBox="0 0 1024 1024" version="1.1" xmlns="http://www.w3.org/2000/svg" p-id="2866" width="81" height="81" xmlns:xlink="http://www.w3.org/1999/xlink"><defs><style type="text/css"></style></defs><path d="M512 950.857143A438.857143 438.857143 0 1 0 512 73.142857a438.857143 438.857143 0 0 0 0 877.714286z m0 73.142857A512 512 0 1 1 512 0a512 512 0 0 1 0 1024z" fill="#C6C6C6" p-id="2867"></path><path d="M494.592 680.521143h87.259429c55.808 0 97.572571-14.628571 125.293714-43.154286 26.185143-28.233143 39.716571-70.290286 39.716571-125.366857 0-57.051429-12.434286-99.108571-36.644571-126.025143-25.819429-28.379429-66.121143-42.422857-122.733714-42.422857h-92.891429v336.969143zM428.982857 292.571429l7.314286-7.314286h159.305143c72.484571 0 127.268571 20.626286 164.644571 62.683428 34.377143 38.4 51.638857 93.622857 51.638857 164.059429 0 69.266286-18.578286 124.562286-55.442285 164.205714-38.912 41.691429-94.500571 62.537143-165.888 62.537143h-154.331429l-7.314286-7.314286V292.571429zM285.257143 292.571429l7.314286-7.314286h50.395428l7.314286 7.314286v438.857142l-7.314286 7.314286H292.571429l-7.314286-7.314286V292.571429z" fill="#C6C6C6" p-id="2868"></path></svg>