<?xml version="1.0" standalone="no"?><!DOCTYPE svg PUBLIC "-//W3C//DTD SVG 1.1//EN" "http://www.w3.org/Graphics/SVG/1.1/DTD/svg11.dtd"><svg t="1569167085118" class="icon" viewBox="0 0 1024 1024" version="1.1" xmlns="http://www.w3.org/2000/svg" p-id="2617" width="81" height="81" xmlns:xlink="http://www.w3.org/1999/xlink"><defs><style type="text/css"></style></defs><path d="M968.499 664.076h-28.112c0.112-1.197 0.338-2.303 0.338-3.523V599.95c0-77.404-62.93-140.357-140.334-140.357-77.359 0-140.312 62.953-140.312 140.357v60.604c0 1.242 0.249 2.349 0.361 3.523h-16.573c-25.81 0-46.786 21-46.786 46.785V934.02c0 25.854 21 46.83 46.786 46.83H968.52c25.786 0 46.786-20.999 46.786-46.83V710.861c-0.023-25.786-21.045-46.785-46.808-46.785z m-236.796-3.523V599.95c0-37.934 30.799-68.756 68.665-68.756 37.89 0 68.711 30.822 68.711 68.756v60.604c0 1.242 0.271 2.349 0.384 3.523H731.364c0.09-1.197 0.339-2.28 0.339-3.523zM979.45 934.02c0 6.097-4.923 10.974-10.951 10.974H643.844c-6.051 0-10.974-4.9-10.974-10.974V710.861c0-6.05 4.945-10.973 10.974-10.973H968.5c6.05 0 10.95 4.945 10.95 10.973V934.02zM806.149 810.574c-14.79 0-26.825 11.99-26.825 26.825v51.64h53.627V837.4c0.023-14.812-11.99-26.825-26.802-26.825zM655.902 605.3a567.143 567.143 0 0 0-51.821-15.557c-2.552-1.333-5.442-2.123-8.377-2.123h-9.19c-2.868 0-5.736 0.7-8.31 2.078-6.187 3.341-13.186 6.164-20.231 8.919-5.442 2.167-11.2 3.883-17.003 5.645-2.642 0.7-5.306 1.535-7.993 2.303-5.036 1.377-10.252 2.461-15.467 3.477-4.607 0.926-9.303 1.671-14.023 2.348-4.041 0.565-8.016 1.197-12.125 1.581-9.28 0.97-18.741 1.58-28.225 1.58-3.545 0-7.045-0.451-10.567-0.61-38.838-1.376-76.524-10.137-104.59-25.22-2.507-1.378-5.42-2.078-8.31-2.078h-6.684c-1.355 0-2.732 0.135-4.087 0.451-103.958 24.613-200.577 78.195-279.54 154.763-3.364 3.297-5.283 7.948-5.283 12.668v62.93c0 9.754 7.858 161.356 17.612 161.356h522.613c-20.525-42.112-32.064-89.394-32.064-139.408 0-93.098 39.967-176.892 103.665-235.103zM265.11 308.758c0 18.945 14.519 34.299 32.38 34.299h0.587c6.706 90.5 77.968 181.023 165.059 181.023 4.968 0 9.845-0.361 14.722-0.97 1.716-0.181 3.455-0.52 5.216-0.791a148.667 148.667 0 0 0 8.942-1.716c2.167-0.52 4.245-1.152 6.435-1.716 2.326-0.655 4.629-1.445 6.932-2.213 2.484-0.88 4.968-1.716 7.384-2.777 1.422-0.52 2.822-1.242 4.2-1.852 61.01-27.457 105.967-98.11 111.25-168.965h0.475c17.929 0 32.425-15.355 32.425-34.3 0-13.976-7.903-26.034-19.125-31.386 6.458-20.321 10.07-42.02 10.07-64.759 0-91.742-58.21-168.965-137.624-192.72-1.31-0.36-2.552-0.722-3.839-1.083-6.074-1.626-12.238-2.913-18.47-4.02-1.92-0.316-3.771-0.654-5.713-0.903-7.655-0.97-15.4-1.67-23.28-1.67-104.387 0-188.994 89.755-188.994 200.396 0 22.738 3.59 44.438 10.16 64.76-11.289 5.328-19.192 17.363-19.192 31.363z m0 0" fill="#2c2c2c" p-id="2618"></path></svg>