<?xml version="1.0" standalone="no"?><!DOCTYPE svg PUBLIC "-//W3C//DTD SVG 1.1//EN" "http://www.w3.org/Graphics/SVG/1.1/DTD/svg11.dtd"><svg t="1569050848544" class="icon" viewBox="0 0 1024 1024" version="1.1" xmlns="http://www.w3.org/2000/svg" p-id="15436" width="80" height="80" xmlns:xlink="http://www.w3.org/1999/xlink"><defs><style type="text/css"></style></defs><path d="M511.469416 61.661362c247.481488 0 448.180486 200.701045 448.180486 448.183556 0 247.478418-200.698998 448.178439-448.180486 448.178439-247.482511 0-448.182532-200.700021-448.182532-448.178439C63.286883 262.361383 263.987928 61.661362 511.469416 61.661362L511.469416 61.661362zM634.538359 296.686143 388.405589 296.686143 265.336646 509.844917l123.066897 213.157751 246.130723 0L757.603209 509.844917 634.538359 296.686143 634.538359 296.686143zM511.469416 603.00262c51.449789 0 93.160773-41.707914 93.160773-93.157703 0-51.450812-41.710984-93.161796-93.160773-93.161796-51.450812 0-93.161796 41.710984-93.161796 93.161796C418.308643 561.294706 460.018603 603.00262 511.469416 603.00262z" p-id="15437" fill="#FDDB43"></path></svg>