<?xml version="1.0" standalone="no"?><!DOCTYPE svg PUBLIC "-//W3C//DTD SVG 1.1//EN" "http://www.w3.org/Graphics/SVG/1.1/DTD/svg11.dtd"><svg t="1569050907383" class="icon" viewBox="0 0 1024 1024" version="1.1" xmlns="http://www.w3.org/2000/svg" p-id="18363" width="80" height="80" xmlns:xlink="http://www.w3.org/1999/xlink"><defs><style type="text/css"></style></defs><path d="M553.1 934.5c-16.6 0-30-13.4-30-30V652.6c0-16.6 13.4-30 30-30s30 13.4 30 30v251.8c0 16.6-13.4 30.1-30 30.1z m-88.8 0c-16.6 0-30-13.4-30-30V652.6c0-16.6 13.4-30 30-30 8.3 0 16 3.2 21.7 8.9 5.8 5.8 8.9 13.4 8.3 21.1v251.8c0 16.6-13.4 30.1-30 30.1zM693 537.6h-75.4V395.7c0-60.1-49.2-109.3-109.3-109.3-60.1 0-109.3 49.2-109.3 109.3V537h-74.8c-16.6 0-30 13.4-30 30s13.4 30 30 30H693c16.6 0 30-13.4 30-30 0.1-16-13.3-29.4-30-29.4z m-136.1 0h-97.1V396.4c0-26.8 21.7-48.6 48.6-48.6 26.8 0 48.6 21.7 48.6 48.6v141.2z m0 0" p-id="18364" fill="#FDDB43"></path><path d="M749.3 935.7h-88.2c-16.6 0-30-13.4-30-30V715.3c-0.6-7.7 1.9-15.3 7-21.1 3.2-3.8 6.4-6.4 10.9-8.3l117-73.5V422.6c0-53 43.5-96.5 96.5-96.5s96.5 43.5 96.5 96.5v208.3c1.3 12.1-11.5 37.1-22.4 42.8l-155.9 101v131c0 7.7-3.2 15.3-8.3 21.1-7.1 5.7-14.8 8.9-23.1 8.9zM719.2 875V758.7c-0.6-12.1 5.8-23.6 16-28.8l162.3-101V422.6c0-19.8-16-35.8-35.8-35.8-19.8 0-35.8 16-35.8 35.8v205.1c1.3 12.1-5.1 23.6-16 29.4L691 731.2v144.4h28.1v-0.6z m-441.6 60.7h-5.1c-16.6 0-30-13.4-30-30v-131L85.9 673.1C75 667.3 62.3 641.8 64.2 629v10.2-217.3c0-53 43.5-96.5 96.5-96.5s96.5 43.5 96.5 96.5v189.8l117.6 74.8c6.4 3.8 11.5 9.6 14.1 17.2 0.6 1.3 0.6 1.9 0.6 3.2v197.5c0 16-11.5 28.8-26.8 30h-85v1.3z m52.4-60V731.2l-118.9-74.1c-10.2-5.7-16.6-17.3-15.3-29.4V422.6c0-19.8-16-35.8-35.8-35.8-19.8 0-35.8 16-35.8 35.8V629l162.3 101.6c3.8 1.9 7 5.1 10.2 8.9 0.6 0.6 0.6 0.6 0.6 1.3 1.9 3.2 3.8 7 4.5 11.5v123.3H330zM155.6 191.2c16 0 28.8 12.8 28.8 28.8s-12.8 28.8-28.8 28.8-28.8-12.8-28.8-28.8 12.8-28.8 28.8-28.8m0-57.5c-47.3 0-86.3 38.3-86.3 86.3 0 47.3 38.3 86.3 86.3 86.3 47.9 0 86.3-38.3 86.3-86.3s-39-86.3-86.3-86.3z m354.7 10.9c16 0 28.8 12.8 28.8 28.8s-12.8 28.8-28.8 28.8-28.8-12.8-28.8-28.8c0-16.1 12.8-28.8 28.8-28.8m0-57.6C463 87 424 125.4 424 173.3c0 47.3 38.3 86.3 86.3 86.3 47.9 0 86.3-38.3 86.3-86.3-0.1-47.9-39-86.3-86.3-86.3z m349.5 104.2c16 0 28.8 12.8 28.8 28.8s-12.8 28.8-28.8 28.8S831 236 831 220c0.1-16 12.9-28.8 28.8-28.8m0-57.5c-47.3 0-86.3 38.3-86.3 86.3 0 47.3 38.3 86.3 86.3 86.3 47.9 0 86.3-38.3 86.3-86.3s-39-86.3-86.3-86.3z m0 0" p-id="18365" fill="#FDDB43"></path></svg>