<?xml version="1.0" standalone="no"?><!DOCTYPE svg PUBLIC "-//W3C//DTD SVG 1.1//EN" "http://www.w3.org/Graphics/SVG/1.1/DTD/svg11.dtd"><svg t="1569050867952" class="icon" viewBox="0 0 1024 1024" version="1.1" xmlns="http://www.w3.org/2000/svg" p-id="16229" width="80" height="80" xmlns:xlink="http://www.w3.org/1999/xlink"><defs><style type="text/css"></style></defs><path d="M932.981007 644.537596c-16.379039 0-35.289738 13.401218-35.289738 29.780257l0 120.1648c0 57.029878-46.010917 103.189174-102.59361 103.189174L225.992057 897.671827c-56.732096 0-102.59361-46.159296-102.59361-103.189174l0-567.914474c0-57.029878 45.861514-103.189174 102.59361-103.189174l252.091482 0c16.379039 0 29.631878 1.488911 29.631878-14.890128s-13.251815-44.670385-29.631878-44.670385L182.213995 63.818491c-65.367777 0-118.377084 53.30709-118.377084 119.122051l0 655.17077c0 65.814961 53.009308 119.122051 118.377084 119.122051l656.659681 0c65.367777 0 118.377084-53.30709 118.377084-119.122051L957.25076 674.317852C957.251783 657.938813 949.360046 644.537596 932.981007 644.537596zM247.731174 742.962256c-4.764514 32.460296 17.421788 54.200436 49.584302 48.244794l188.80818-34.098609L276.915867 546.559097 247.731174 742.962256zM639.643122 280.023648c23.229051-23.37743 60.603263-23.37743 83.832314 0l41.841967 41.990347c23.079648 23.37743 23.079648 61.050448 0 84.278475L576.954361 595.84664c-23.079648 23.229051-60.603263 23.229051-83.682911 0l-41.841967-42.139749c-23.079648-23.229051-23.079648-60.901045 0-84.278475L639.643122 280.023648zM535.113417 722.263841l355.727841-358.110097L681.633469 153.605424 325.905628 511.567141 535.113417 722.263841zM935.809425 304.59323c34.694173-34.843576 24.420179-81.152275-10.273994-115.994828L841.85252 104.318904c-34.694173-34.843576-90.830705-34.843576-125.524878 0l209.207789 210.54832L935.809425 304.59323z" p-id="16230" fill="#FDDB43"></path></svg>