<?xml version="1.0" standalone="no"?><!DOCTYPE svg PUBLIC "-//W3C//DTD SVG 1.1//EN" "http://www.w3.org/Graphics/SVG/1.1/DTD/svg11.dtd"><svg t="1569147454480" class="icon" viewBox="0 0 1024 1024" version="1.1" xmlns="http://www.w3.org/2000/svg" p-id="4303" width="81" height="81" xmlns:xlink="http://www.w3.org/1999/xlink"><defs><style type="text/css"></style></defs><path d="M512 85.3C276.5 85.3 85.3 276.5 85.3 512S276.5 938.7 512 938.7 938.7 747.5 938.7 512 747.5 85.3 512 85.3z m0 128c70.8 0 128 57.2 128 128s-57.2 128-128 128-128-57.2-128-128 57.2-128 128-128z m0 605.9c-106.7 0-201-54.6-256-137.4 1.3-84.9 170.7-131.4 256-131.4 84.9 0 254.7 46.5 256 131.4-55 82.8-149.3 137.4-256 137.4z" p-id="4304" fill="#C6C6C6"></path></svg>