<?xml version="1.0" standalone="no"?><!DOCTYPE svg PUBLIC "-//W3C//DTD SVG 1.1//EN" "http://www.w3.org/Graphics/SVG/1.1/DTD/svg11.dtd"><svg t="1569147495479" class="icon" viewBox="0 0 1024 1024" version="1.1" xmlns="http://www.w3.org/2000/svg" p-id="6039" width="81" height="81" xmlns:xlink="http://www.w3.org/1999/xlink"><defs><style type="text/css"></style></defs><path d="M806.173926 844.077188c0 15.998369-3.202948 30.873148-9.599635 44.630477-6.398734 13.757329-15.196097 25.910113-26.394137 36.46654-11.195993 10.562567-24.311709 18.877953-39.347147 24.955368-15.043624 6.075369-31.199583 9.118682-48.475038 9.118682L341.641007 959.248254c-17.275455 0-33.432437-3.042289-48.475038-9.118682-15.033391-6.077416-28.151154-14.393825-39.347147-24.955368-11.19804-10.556427-19.995403-22.709211-26.394137-36.46654-6.396687-13.757329-9.599635-28.632107-9.599635-44.630477L217.825051 180.885743c0-15.998369 3.202948-31.032784 9.599635-45.104267 6.398734-14.078647 15.196097-26.400277 26.394137-36.956703 11.195993-10.55438 24.313755-18.877953 39.347147-24.955368 15.043624-6.075369 31.199583-9.118682 48.475038-9.118682l340.716962 0c17.275455 0 33.432437 3.042289 48.475038 9.118682 15.035438 6.077416 28.151154 14.400988 39.347147 24.955368 11.19804 10.556427 19.995403 22.878057 26.394137 36.956703 6.396687 14.07046 9.599635 29.105898 9.599635 45.104267L806.173926 844.077188 806.173926 844.077188 806.173926 844.077188zM728.432331 226.960105 294.609855 226.960105l0 570.086953 433.822476 0L728.432331 226.960105 728.432331 226.960105 728.432331 226.960105zM511.522116 823.923172c-13.437034 0-25.116027 4.799306-35.036981 14.391778-9.914814 9.599635-14.874779 21.439288-14.874779 35.511795 0 13.444197 4.959965 25.116027 14.874779 35.036981 9.91993 9.912767 21.599947 14.872732 35.036981 14.872732 14.078647 0 25.910113-4.959965 35.509748-14.872732 9.601682-9.920954 14.400988-21.591761 14.400988-35.036981 0-14.072507-4.799306-25.91216-14.400988-35.511795C537.433252 828.722478 525.600763 823.923172 511.522116 823.923172L511.522116 823.923172 511.522116 823.923172zM588.299757 145.373948c0-5.112438-1.596358-9.110495-4.799306-11.991102-3.194762-2.882654-6.719028-4.320399-10.54824-4.320399L451.055976 129.062448c-3.202948 0-6.558369 1.437745-10.075473 4.320399-3.524267 2.880607-5.281283 6.877641-5.281283 11.991102 0 5.122671 1.596358 9.119705 4.799306 12.000312 3.195785 2.882654 6.719028 4.318352 10.556427 4.318352l121.895211 0c3.829212 0 7.353478-1.436722 10.54824-4.318352C586.702376 154.493653 588.299757 150.496619 588.299757 145.373948L588.299757 145.373948 588.299757 145.373948zM588.299757 145.373948" p-id="6040" fill="#C6C6C6"></path></svg>