<?xml version="1.0" standalone="no"?><!DOCTYPE svg PUBLIC "-//W3C//DTD SVG 1.1//EN" "http://www.w3.org/Graphics/SVG/1.1/DTD/svg11.dtd"><svg t="1569050700066" class="icon" viewBox="0 0 1024 1024" version="1.1" xmlns="http://www.w3.org/2000/svg" p-id="11357" width="80" height="80" xmlns:xlink="http://www.w3.org/1999/xlink"><defs><style type="text/css"></style></defs><path d="M445.25383 445.968098c0 0 0-254.637468 0-255.009951-0.005117-20.668739-32.330336-48.081065-46.431495-61.286832-67.137073-62.871933-168.858826-72.1656-244.930385-19.455097-62.437028 43.263339-89.404216 130.434701-74.387197 202.432479 11.533684 55.299467 57.056484 133.319401 128.776945 133.319401 70.545706 0 141.090389 0 211.636095 0C428.363138 445.968098 436.808484 445.968098 445.25383 445.968098z" p-id="11358" fill="#FDDB43"></path><path d="M577.729004 445.857581c0 0 254.637468 0 255.009951 0 20.668739-0.005117 48.081065-32.330336 61.286832-46.431495 62.871933-67.137073 72.1656-168.858826 19.455097-244.930385C870.218568 92.058672 783.046183 65.092507 711.048405 80.108502c-55.299467 11.533684-133.319401 57.056484-133.319401 128.776945 0 70.545706 0 141.090389 0 211.636095C577.729004 428.966888 577.729004 437.412235 577.729004 445.857581z" p-id="11359" fill="#FDDB43"></path><path d="M445.25383 576.340377c0 0 0 254.637468 0 255.009951-0.005117 20.668739-32.330336 48.081065-46.431495 61.286832-67.137073 62.871933-168.858826 72.1656-244.930385 19.455097-62.437028-43.263339-89.404216-130.434701-74.387197-202.432479 11.533684-55.299467 57.056484-133.319401 128.776945-133.319401 70.545706 0 141.090389 0 211.636095 0C428.363138 576.340377 436.808484 576.340377 445.25383 576.340377z" p-id="11360" fill="#FDDB43"></path><path d="M576.816215 576.340377c0 0 0 254.637468 0 255.009951 0.005117 20.668739 32.330336 48.081065 46.431495 61.286832 67.137073 62.871933 168.858826 72.1656 244.930385 19.455097 62.437028-43.263339 89.404216-130.434701 74.387197-202.432479-11.533684-55.299467-57.056484-133.319401-128.776945-133.319401-70.545706 0-141.090389 0-211.636095 0C593.706907 576.340377 585.261561 576.340377 576.816215 576.340377z" p-id="11361" fill="#FDDB43"></path></svg>