<?xml version="1.0" standalone="no"?><!DOCTYPE svg PUBLIC "-//W3C//DTD SVG 1.1//EN" "http://www.w3.org/Graphics/SVG/1.1/DTD/svg11.dtd"><svg t="1569250312118" class="icon" viewBox="0 0 1024 1024" version="1.1" xmlns="http://www.w3.org/2000/svg" p-id="4988" width="81" height="81" xmlns:xlink="http://www.w3.org/1999/xlink"><defs><style type="text/css"></style></defs><path d="M601.6 281.6c19.2 0 32-12.8 32-32V134.4c0-19.2-12.8-32-32-32s-32 12.8-32 32v115.2c0 19.2 12.8 32 32 32z" fill="#8a8a8a" p-id="4989"></path><path d="M864 12.8H153.6C70.4 12.8 6.4 83.2 6.4 160v710.4c0 83.2 70.4 147.2 147.2 147.2h710.4c83.2 0 147.2-70.4 147.2-147.2V160c6.4-76.8-64-147.2-147.2-147.2z m-147.2 294.4H307.2V76.8h409.6v230.4z m236.8 563.2c0 44.8-38.4 83.2-83.2 83.2H153.6c-44.8 0-83.2-38.4-83.2-83.2V160c0-44.8 38.4-83.2 83.2-83.2h83.2v236.8c0 32 25.6 64 64 64h416c32 0 64-25.6 64-64V76.8h83.2c44.8 0 83.2 38.4 83.2 83.2v710.4z" fill="#8a8a8a" p-id="4990"></path></svg>