<?xml version="1.0" standalone="no"?><!DOCTYPE svg PUBLIC "-//W3C//DTD SVG 1.1//EN" "http://www.w3.org/Graphics/SVG/1.1/DTD/svg11.dtd"><svg t="1569147510467" class="icon" viewBox="0 0 1024 1024" version="1.1" xmlns="http://www.w3.org/2000/svg" p-id="6873" width="81" height="81" xmlns:xlink="http://www.w3.org/1999/xlink"><defs><style type="text/css"></style></defs><path d="M878.778182 584.610909c0 59.578182-38.632727 112.174545-90.763637 151.738182l19.549091 65.629091-71.214545-39.563637c-26.065455 6.981818-52.130909 13.498182-78.196364 13.498182-123.345455 0-220.625455-85.643636-220.625454-191.301818 0-105.192727 97.28-190.836364 220.625454-190.836364 116.829091 0 220.625455 85.643636 220.625455 190.836364z m-236.916364-205.265454c-123.345455 0-220.625455 93.556364-220.625454 208.523636 0 19.083636 2.792727 37.701818 7.912727 55.389091-7.912727 0.465455-16.290909 0.930909-24.203636 0.930909-32.581818 0-58.647273-6.516364-91.229091-13.498182l-90.763637 46.545455 26.065455-79.592728c-65.163636-46.08-103.796364-105.192727-103.796364-177.338181 0-125.207273 116.829091-223.883636 259.723637-223.883637 127.534545 0 239.709091 78.661818 262.050909 184.785455-8.378182-0.930909-16.756364-1.861818-25.134546-1.861818zM0 512c0 282.996364 229.003636 512 512 512s512-229.003636 512-512S794.996364 0 512 0 0 229.003636 0 512z m586.472727 39.563636c20.014545 0 32.581818-13.032727 32.581818-26.065454s-12.567273-26.530909-32.581818-26.530909c-12.567273 0-25.6 13.498182-25.6 26.530909 0 13.032727 13.032727 26.065455 25.6 26.065454z m142.894546 0c19.549091 0 32.581818-13.032727 32.581818-26.065454s-13.032727-26.530909-32.581818-26.530909c-12.567273 0-25.6 13.498182-25.6 26.530909 0 13.032727 13.032727 26.065455 25.6 26.065454z m-227.141818-243.432727c-19.549091 0-39.098182 13.032727-39.098182 33.047273 0 19.549091 19.549091 33.047273 39.098182 33.047273s32.581818-13.498182 32.581818-33.047273c0-20.014545-13.032727-33.047273-32.581818-33.047273zM320.232727 374.225455c19.549091 0 32.581818-13.498182 32.581818-33.047273 0-20.014545-13.032727-33.047273-32.581818-33.047273-19.083636 0-39.098182 13.032727-39.098182 33.047273 0 19.549091 20.014545 33.047273 39.098182 33.047273z" fill="#C6C6C6" p-id="6874"></path></svg>